<svg xmlns="http://www.w3.org/2000/svg" xml:space="preserve" viewBox="0 0 378.893 262.573"><path fill="#fff" d="M377.907 243.784c0 9.836-7.967 17.805-17.787 17.805H18.77c-9.825 0-17.786-7.969-17.786-17.805V18.799C.984 8.957 8.944.983 18.77.983h341.35c9.82 0 17.787 7.974 17.787 17.816v224.985"/><path fill="none" stroke="#656a6f" stroke-miterlimit="10" stroke-width="1.967" d="M377.907 243.784c0 9.836-7.967 17.805-17.787 17.805H18.77c-9.825 0-17.786-7.969-17.786-17.805V18.799C.984 8.957 8.944.983 18.77.983h341.35c9.82 0 17.787 7.974 17.787 17.816z"/><path fill="#652168" d="M23.372 38.855V17.827h2.518v21.028h-2.518m16.589 0v-9.112c0-2.207.127-3.942-2.486-3.942-1.258 0-2.801.284-4.343.852v12.202h-2.33V24.007h2.266v1.197c2.14-1.01 3.81-1.544 5.13-1.544 1.512 0 2.646.504 3.338 1.45.629.851.756 1.543.756 3.877v9.868h-2.33m9.828.282c-1.542 0-2.676-.189-4.47-.694l.44-1.67c1.449.315 2.488.442 3.463.442 2.17 0 3.4-.884 3.4-2.459 0-1.263-.505-1.797-2.487-2.428-2.582-.82-4.72-1.672-4.72-4.319 0-2.709 1.887-4.349 4.876-4.349 1.102 0 2.457.252 3.966.787l-.407 1.609c-1.385-.316-2.52-.473-3.337-.473-1.698 0-2.706.756-2.706 2.174 0 3.404 7.27 1.483 7.27 6.683 0 2.932-2.015 4.697-5.288 4.697m14.984-13.365c-1.008 0-2.014.25-4.154 1.04v9.205c2.203.819 2.927 1.04 3.997 1.04 2.235 0 3.494-1.922 3.494-5.486 0-4.003-1.101-5.799-3.337-5.799zm.443 13.428c-1.607 0-3.211-.883-4.597-1.672v7.63h-2.33V24.006h2.268V25.3c1.888-1.043 3.65-1.64 5.004-1.64 3.21 0 5.069 2.9 5.069 7.721 0 4.668-2.203 7.819-5.414 7.819M79.86 25.519c-2.235 0-3.683 1.576-3.935 4.572l6.986-.254c0-2.993-1.007-4.318-3.051-4.318zm-4.061 6.116v.536c0 3.277 1.385 4.886 3.87 4.886 1.416 0 2.646-.284 5.1-1.102l.44 1.449C82.125 38.82 80.834 39.2 79.07 39.2c-3.524 0-5.79-2.741-5.79-7.185 0-5.171 2.39-8.355 6.325-8.355 3.748 0 5.698 2.396 5.698 7.187v.788H75.8M93.652 39.2c-3.619 0-5.884-2.52-5.884-7.565 0-4.823 2.579-7.975 6.2-7.975 1.197 0 2.771.313 4.69 1.008l-.377 1.575c-1.796-.376-2.455-.471-3.747-.471-2.897 0-4.25 1.859-4.25 5.77 0 3.622 1.386 5.515 4.03 5.515 1.102 0 2.676-.314 4.155-.818l.503 1.449c-2.11.976-3.902 1.512-5.32 1.512m11.557-.03c-1.227 0-2.14-.506-2.61-1.453-.284-.565-.35-1.197-.35-2.93v-9.079h-2.517v-1.293l2.517-.282v-4.066h2.331v3.94h4.155v1.701h-4.155v8.007c0 2.586 0 2.616.222 2.993.218.35.596.507 1.164.507.785 0 1.574-.158 2.831-.535l.44 1.45c-1.73.755-2.831 1.04-4.028 1.04m12.154-13.651c-2.236 0-3.684 1.576-3.935 4.572l6.987-.254c0-2.993-1.008-4.318-3.052-4.318zm-4.061 6.116v.536c0 3.277 1.385 4.886 3.872 4.886 1.415 0 2.643-.284 5.097-1.102l.44 1.449c-3.083 1.416-4.373 1.796-6.136 1.796-3.525 0-5.79-2.741-5.79-7.185 0-5.171 2.39-8.355 6.324-8.355 3.748 0 5.698 2.396 5.698 7.187v.788h-9.505m21.975-4.823c-2.235-.82-2.928-1.01-3.998-1.01-2.235 0-3.493 1.923-3.493 5.487 0 4.003 1.101 5.799 3.337 5.799 1.007 0 2.014-.22 4.154-1.07zm.063 12.043v-1.327c-1.89 1.073-3.652 1.672-5.006 1.672-3.21 0-5.065-2.899-5.065-7.724 0-4.664 2.203-7.816 5.411-7.816 1.607 0 3.181.85 4.597 1.64v-8.828h2.33v22.383h-2.267m22.043-7.41c-4.786.347-5.887 1.039-5.887 3.184 0 1.672.785 2.523 2.015 2.523 1.352 0 3.872-1.103 3.872-1.103zm.061 7.41V37.56c-1.888 1.072-3.21 1.64-4.563 1.64-1.92 0-3.808-1.483-3.808-4.632 0-2.397 1.038-3.816 2.802-4.259 1.133-.284 2.61-.377 5.508-.377v-.599c0-2.458.124-3.561-2.771-3.561-1.133 0-2.581.157-4.407.504l-.252-1.608c2.328-.695 4.092-1.008 5.666-1.008 1.574 0 2.676.408 3.306 1.228.63.79.786 1.703.786 4.413v9.554h-2.267m15.779 0v-9.112c0-2.207.125-3.942-2.488-3.942-1.258 0-2.8.284-4.343.852v12.202h-2.33V24.007h2.267v1.197c2.14-1.01 3.81-1.544 5.13-1.544 1.512 0 2.646.504 3.337 1.45.63.851.757 1.543.757 3.877v9.868h-2.33m15.741-12.043c-2.233-.82-2.927-1.01-3.996-1.01-2.236 0-3.495 1.923-3.495 5.487 0 4.003 1.102 5.799 3.338 5.799 1.008 0 2.016-.22 4.153-1.07zm.065 12.043v-1.327c-1.89 1.073-3.653 1.672-5.006 1.672-3.211 0-5.067-2.899-5.067-7.724 0-4.664 2.204-7.816 5.412-7.816 1.607 0 3.181.85 4.596 1.64v-8.828h2.33v22.383h-2.265m20.848-12.863c-1.322 0-2.425.221-3.84.883v11.98h-2.33V24.007h2.268V25.3c1.477-1.075 2.549-1.483 3.902-1.483.251 0 .407 0 .756.063v2.143c-.41-.031-.568-.031-.756-.031m10.233 5.453c-4.786.347-5.887 1.039-5.887 3.184 0 1.672.784 2.523 2.013 2.523 1.353 0 3.873-1.103 3.873-1.103zm.06 7.41V37.56c-1.887 1.072-3.21 1.64-4.562 1.64-1.921 0-3.81-1.483-3.81-4.632 0-2.397 1.038-3.816 2.802-4.259 1.133-.284 2.612-.377 5.51-.377v-.599c0-2.458.122-3.561-2.773-3.561-1.133 0-2.581.157-4.406.504l-.251-1.608c2.327-.695 4.09-1.008 5.664-1.008 1.576 0 2.677.408 3.307 1.228.628.79.785 1.703.785 4.413v9.554h-2.267m10.019.315c-1.227 0-2.139-.506-2.612-1.453-.284-.565-.348-1.197-.348-2.93v-9.079h-2.516v-1.293l2.516-.282v-4.066h2.33v3.94h4.157v1.701h-4.158v8.007c0 2.586 0 2.616.222 2.993.221.35.598.507 1.165.507.785 0 1.573-.158 2.833-.535l.44 1.45c-1.732.755-2.833 1.04-4.029 1.04m12.153-13.651c-2.234 0-3.682 1.576-3.934 4.572l6.985-.254c0-2.993-1.005-4.318-3.05-4.318zm-4.061 6.116v.536c0 3.277 1.387 4.886 3.873 4.886 1.414 0 2.643-.284 5.098-1.102l.44 1.449c-3.083 1.416-4.375 1.796-6.138 1.796-3.524 0-5.789-2.741-5.789-7.185 0-5.171 2.39-8.355 6.324-8.355 3.747 0 5.697 2.396 5.697 7.187v.788h-9.505m21.975-4.823c-2.234-.82-2.927-1.01-3.996-1.01-2.236 0-3.495 1.923-3.495 5.487 0 4.003 1.101 5.799 3.339 5.799 1.006 0 2.013-.22 4.152-1.07zm.065 12.043v-1.327c-1.89 1.073-3.653 1.672-5.007 1.672-3.21 0-5.065-2.899-5.065-7.724 0-4.664 2.203-7.816 5.412-7.816 1.607 0 3.179.85 4.595 1.64v-8.828h2.33v22.383h-2.265"/><path fill="#409629" d="M360.008 116.633c0 4.783-3.875 8.663-8.653 8.663H26.067c-4.78 0-8.655-3.88-8.655-8.663V62.151a8.654 8.654 0 0 1 8.655-8.662h325.288c4.778 0 8.653 3.872 8.653 8.662v54.482"/><path fill="#fff" d="M47.513 105.012c-7.502 0-11.842-5.953-11.842-16.35 0-10.583 4.529-16.203 12.88-16.203 2.547 0 5.236.472 9.389 1.748l-.662 2.786c-3.208-.801-6.51-1.274-8.491-1.274-6.133 0-9.057 4.109-9.057 12.757 0 4.44.895 8.219 2.405 10.393 1.462 2.078 3.256 2.93 6.274 2.93 1.982 0 4.482-.427 6.84-1.136V89.609h3.633v12.66c-4.528 1.891-8.161 2.743-11.37 2.743m26.035-20.459c-4.15 0-6.086 2.692-6.086 8.692 0 6.143 1.935 8.648 6.086 8.648 4.245 0 6.086-2.505 6.086-8.6 0-6.048-1.746-8.74-6.086-8.74zm0 20.27c-6.274 0-9.857-4.252-9.857-11.578 0-7.18 3.678-11.621 9.857-11.621 6.37 0 9.861 4.11 9.861 11.621 0 7.418-3.49 11.578-9.86 11.578m23.678-20.27c-4.15 0-6.086 2.692-6.086 8.692 0 6.143 1.935 8.648 6.086 8.648 4.245 0 6.086-2.505 6.086-8.6 0-6.048-1.746-8.74-6.086-8.74zm0 20.27c-6.275 0-9.858-4.252-9.858-11.578 0-7.18 3.678-11.621 9.858-11.621 6.368 0 9.86 4.11 9.86 11.621 0 7.418-3.492 11.578-9.86 11.578m28.819-18.473c-3.35-1.229-4.387-1.513-5.99-1.513-3.351 0-5.24 2.882-5.24 8.222 0 6 1.652 8.693 5.002 8.693 1.51 0 3.02-.33 6.228-1.607zm.094 18.047v-1.985c-2.83 1.607-5.474 2.504-7.5 2.504-4.813 0-7.595-4.345-7.595-11.576 0-6.99 3.302-11.716 8.112-11.716 2.407 0 4.765 1.276 6.889 2.455V70.852h3.488v33.545h-3.394"/><path fill="#656a6f" d="M276.928 205.91c0-1.62 1.352-2.94 4.02-2.94 2.67 0 4.92 1.32 5.204 1.5l1.445-2.577c-.232-.185-2.672-1.958-6.922-1.958-4.476 0-7.639 2.493-7.639 6.217 0 6.972 10.8 5.973 10.8 10.456 0 1.942-1.85 3.257-4.205 3.257-3.154 0-5.379-1.404-5.827-1.674l-1.453 2.666c.278.226 3.173 2.171 7.518 2.171 4.286 0 7.996-2.437 7.996-6.702 0-6.962-10.937-6.193-10.937-10.415m15.775 16.53h3.846v-21.917h-3.846zm-34.411-16.53c0-1.622 1.356-2.942 4.017-2.942 2.663 0 4.934 1.32 5.203 1.5l1.447-2.576c-.227-.185-2.663-1.958-6.916-1.958-4.479 0-7.638 2.493-7.638 6.217 0 6.972 10.799 5.973 10.799 10.456 0 1.942-1.848 3.257-4.208 3.257-3.152 0-5.37-1.404-5.828-1.674l-1.45 2.666c.28.226 3.163 2.171 7.506 2.171 4.299 0 8.005-2.437 8.005-6.702 0-6.962-10.937-6.193-10.937-10.415m-25.008-5.976c-3.29 0-5.787 1.402-7.595 2.54-.99-1.362-2.624-2.54-5.382-2.54-3.426 0-6.414 2.04-6.69 2.224v-1.635h-3.434v21.918h3.84v-17.435c.317-.17 2.938-1.807 5.605-1.807 1.31 0 2.27.415 2.853.993 1.131 1.179 1.084 3.171 1.084 6.115v12.134h3.803v-12.27c0-1.768 0-4.17-.364-5.124.493-.313 3.121-1.848 5.788-1.848 1.3 0 2.295.357 2.983 1.138 1.125 1.211 1.088 3.937 1.088 5.294v12.81h3.84v-12.716c0-3.538-.091-5.806-2.176-7.88-.664-.678-2.214-1.911-5.243-1.911m14.156-7.686a2.347 2.347 0 0 0-2.359 2.354 2.343 2.343 0 0 0 2.359 2.353 2.334 2.334 0 0 0 2.347-2.353 2.338 2.338 0 0 0-2.347-2.354m-1.903 30.193h3.848v-21.918h-3.848zm-46.969-22.507c-3.293 0-5.781 1.402-7.59 2.54-1-1.362-2.631-2.54-5.38-2.54-3.433 0-6.427 2.04-6.691 2.224v-1.635h-3.439v21.918h3.844v-17.435c.31-.17 2.932-1.807 5.608-1.807 1.301 0 2.261.415 2.844.993 1.132 1.179 1.083 3.171 1.083 6.115v12.134h3.805v-12.27c0-1.768 0-4.17-.373-5.124.508-.313 3.129-1.848 5.789-1.848 1.315 0 2.312.357 2.988 1.138 1.133 1.211 1.092 3.937 1.092 5.294v12.81h3.837v-12.716c0-3.538-.082-5.806-2.176-7.88-.669-.678-2.213-1.911-5.241-1.911m137.01 0c-3.711 0-6.469 1.993-6.83 2.224v-1.635h-3.432v21.918h3.832v-17.337c.183-.148 2.943-1.905 5.744-1.905 1.353 0 2.493.503 3.072 1.09 1.125 1.129 1.18 2.946 1.18 5.695v12.457h3.841v-12.716c0-3.538-.092-5.806-2.17-7.88-.679-.678-2.219-1.911-5.238-1.911m-24.512 19.791c-3.754 0-6.553-3.353-6.553-8.378 0-4.93 2.476-8.235 6.415-8.235 3.749 0 6.513 3.391 6.513 8.42 0 4.978-2.308 8.193-6.375 8.193m.088-19.791c-6.374 0-10.486 4.67-10.486 11.549 0 6.93 4.072 11.458 10.166 11.458 6.331 0 10.448-4.575 10.448-11.458 0-7.015-4.017-11.55-10.128-11.55m-170.484 19.48c-6.654 0-10.82-4.798-10.82-12.178 0-7.567 4.984-12.052 11.138-12.052 4.244 0 6.913 1.807 7.281 2.041l1.753-2.809c-.36-.37-3.293-2.804-9.264-2.804-8.322 0-15.065 5.88-15.065 15.977 0 9.731 6.379 15.439 14.472 15.439 6.116 0 9.82-2.802 10.128-3.163l-1.752-2.813c-.33.184-3.533 2.361-7.87 2.361m153.935-27.164a2.339 2.339 0 0 0-2.35 2.354 2.335 2.335 0 0 0 2.35 2.353 2.34 2.34 0 0 0 2.352-2.353 2.343 2.343 0 0 0-2.352-2.354m-132.738 27.477c-3.756 0-6.559-3.353-6.559-8.378 0-4.93 2.484-8.235 6.421-8.235 3.754 0 6.516 3.391 6.516 8.42 0 4.978-2.301 8.193-6.378 8.193m.084-19.791c-6.371 0-10.484 4.67-10.484 11.549 0 6.93 4.065 11.458 10.168 11.458 6.334 0 10.45-4.575 10.45-11.458 0-7.015-4.021-11.55-10.134-11.55m66.628-20.646c-4.708 0-8.287-3.907-8.287-10.18 0-6.252 3.132-10.648 7.927-10.648 5.025 0 8.381 4.266 8.381 10.195 0 4.8-1.83 10.633-8.021 10.633m14.432-10.595c0-8.976-5.738-15.44-14.562-15.44-8.657 0-14.562 6.235-14.562 15.44 0 9.362 5.78 15.774 14.309 15.927l.367.008c4.142.096 7.009 1.484 8.834 3.74.614-.403 5.114-4.284 5.114-4.284s-1.55-1.87-5.162-2.353c3.52-2.727 5.662-7.275 5.662-13.038m86.312 20.619c-1.742 0-3.072-.621-3.392-.76l-1.791 4.295c.181.086 2.283 1.385 5.501 1.385 3.618 0 5.486-1.343 6.426-2.282 1.561-1.562 2.546-3.574 4.25-7.92l8.702-22.226h-5.944l-5.491 15.43-5.895-15.43h-6.386l9.201 22.008c-.36.985-1.123 3.316-2.187 4.384-.718.716-1.654 1.116-2.994 1.116m-9.546-9.925c-2.636 0-2.773-2.012-2.773-3.76v-8.814h6.26v-5.009h-6.26v-6.121h-6.03v6.121h-3.795v5.01h3.794v8.59c0 3.09 0 5.188 1.88 7.068 1.476 1.473 3.706 1.965 5.671 1.965 3.257 0 5.355-1.292 5.536-1.429l-1.521-4.159c-.396.131-1.38.538-2.762.538m-15.588-17.583h-6.033v22.013h6.033zm-3.036-2.733a3.41 3.41 0 0 0 3.436-3.435 3.415 3.415 0 0 0-3.436-3.443 3.425 3.425 0 0 0-3.449 3.443c0 1.92 1.53 3.435 3.45 3.435m-6.155-7.64h-6.035v32.386h6.035zm-22.244 25.401c0-2.775 2.765-3.443 6.662-3.443h.935v5.012c-.27.134-1.745 1.34-4.203 1.34-1.476 0-3.394-.622-3.394-2.909m8.04 5.415v1.565h5.22v-13.19c0-2.87.052-5.151-1.787-6.985-2.14-2.15-5.31-2.452-7.185-2.452-5.052 0-8.04 2.104-8.35 2.36l2.004 3.85c.319-.178 2.948-1.602 5.846-1.602 1.664 0 2.645.4 3.126.892.634.63.683 1.244.683 2.59h-.63c-2.68 0-12.24.14-12.24 7.96 0 4.165 2.723 7.07 7.105 7.07 3.486 0 5.802-1.789 6.208-2.058m-27.04 2.19c3.118 0 5.852-2.014 6.196-2.276v1.65h5.141v-22.007h-6.03v16.107c-.357.268-2.14 1.384-4.066 1.384-1.424 0-2.095-.539-2.353-.8-.811-.806-.946-2.239-.946-5.106v-11.585h-6.032v11.861c0 2.855-.09 6.17 2.364 8.63 1.438 1.436 3.403 2.142 5.726 2.142m-58.863-14.002c.443-2.724 2.135-4.781 4.863-4.781 3.702 0 4.158 3.575 4.158 4.78zm4.72-9.25c-6.243 0-10.53 5.008-10.53 11.76 0 6.398 3.794 11.492 10.945 11.492 4.87 0 8.21-2.276 8.344-2.414l-1.966-3.844c-.936.446-3.081 1.563-5.853 1.563-4.365 0-5.71-3.354-5.621-4.963h14.47c0-.316.094-.947.094-1.883 0-7.148-3.444-11.71-9.883-11.71m-18.959 8.18c.672-.983 2.492-3.173 6.158-3.173.302 0 1.164.083 1.342.13l1.388-4.566c-.137-.04-.945-.572-2.509-.572-4.38 0-7.095 3.077-7.275 3.395v-2.776h-5.142v22.008h6.038zm-14.55 9.035c-.263.134-1.738 1.34-4.196 1.34-1.467 0-3.394-.622-3.394-2.909 0-2.775 2.774-3.443 6.654-3.443h.936zm-12.854-1.166c0 4.165 2.718 7.07 7.103 7.07 3.475 0 5.797-1.789 6.204-2.058v1.565h5.223v-13.19c0-2.87.05-5.151-1.779-6.985-2.157-2.15-5.324-2.452-7.19-2.452-5.057 0-8.049 2.104-8.353 2.36l2.003 3.85c.312-.178 2.944-1.602 5.857-1.602 1.648 0 2.628.4 3.122.892.628.63.664 1.244.664 2.59h-.623c-2.67 0-12.23.14-12.23 7.96m-12.717 7.289c6.743 0 10.626-3.348 10.992-3.708l-2.642-4.248c-.484.264-3.66 2.458-7.594 2.458-5.668 0-9.283-4.07-9.283-10.28 0-6.358 4.187-10.163 9.602-10.163 4.328 0 6.744 2.066 7.093 2.28l2.728-4.15c-.309-.313-3.394-3.444-10.085-3.444-8.898 0-15.69 5.943-15.69 15.883 0 9.563 6.474 15.372 14.88 15.372"/><path fill="#652168" d="M67.065 222.488c11.721-2.383 21.292-10.746 25.503-21.803-.023-.025-.057-.017-.087.015-4.577 8.825-13.77 14.87-24.395 14.87-15.182 0-27.493-12.32-27.493-27.526 0-15.197 12.311-27.524 27.493-27.524 10.624 0 19.826 6.04 24.395 14.877.03.022.064.036.087.015-4.21-11.056-13.79-19.423-25.503-21.804.382-.017.76-.04 1.15-.04 18.827 0 34.072 15.43 34.072 34.476 0 19.037-15.245 34.475-34.071 34.475-.39 0-.769-.015-1.151-.031m27.699 3.354c11.822-8.388 19.543-22.18 19.543-37.798 0-25.572-20.694-46.295-46.22-46.295-25.537 0-46.232 20.723-46.232 46.295 0 25.57 20.695 46.293 46.231 46.293h1.316c12.295.21 20.74 4.299 26.138 10.939 1.815-1.193 14.908-12.485 14.908-12.485s-4.682-5.675-15.684-6.95"/></svg>